<svg id="Calque_1" data-name="Calque 1" xmlns="http://www.w3.org/2000/svg" viewBox="0 0 68.03 68.03"><defs><style>.cls-1{fill:#e33c96;stroke:#fff;stroke-miterlimit:10;stroke-width:3px;}.cls-2{fill:#fff;}</style></defs><title>banabites</title><circle class="cls-1" cx="34.02" cy="34.02" r="28.97"/><path class="cls-2" d="M16.24,41.49H12.61l4.81-7.62-4.57-7.33h3.73l2.67,4.87L22,26.54h3.61L21,33.75l4.86,7.74H22.08l-2.84-5.1Z"/><path class="cls-2" d="M31,41.49H27.38l4.81-7.62-4.57-7.33h3.73L34,31.41l2.74-4.87h3.61l-4.57,7.21,4.86,7.74H36.85L34,36.39Z"/><path class="cls-2" d="M45.79,41.49H42.16L47,33.87l-4.57-7.33h3.73l2.67,4.87,2.74-4.87h3.61l-4.57,7.21,4.86,7.74H51.63l-2.84-5.1Z"/></svg>