<svg xmlns="http://www.w3.org/2000/svg" viewBox="-270 190.8 53.9 41.1" enable-background="new -270 190.8 53.9 41.1"><style type="text/css">.st0{fill:#FFFFFF;}</style><path class="st0" d="M-219.7 190.8l-18.1 2-28.8-2c-.9 0-1.8.3-2.4 1-.7.7-1 1.6-1 2.5l1.5 29.9c0 .9.4 1.8 1.1 2.4.7.6 1.6.9 2.5.8l3.9-.4-1.7 3.4c-.2.4-.1.9.2 1.2.2.2.5.3.8.3.1 0 .3 0 .4-.1l17.5-7.2 18.6 6.1.3.1c.3 0 .6-.1.8-.4.3-.3.3-.8.1-1.2l-1.8-4.3 3.1.2c1.8.1 3.3-1.2 3.5-3l3-27.6c.1-1-.2-1.9-.9-2.7-.7-.8-1.6-1-2.6-1zm-.5 31.2c-.1 1.2-1.2 2.2-2.5 2.1l-4.7-.3 2.5 5.8-.1.1-17.5-5.7-1.4-.5-14.4 1.4c-1.3-.1-2.2-1.2-2.1-2.5l1.8-24.4c.1-1.2 1-2.1 2.2-2.2l24.1-2.7 12.7-1.3c.7 0 1.4.2 1.8.7.5.5.7 1.2.6 1.9l-3 27.6z" id="Calque_1_1_"/></svg>