<?xml version="1.0" encoding="utf-8"?>
<!-- Generator: Adobe Illustrator 19.2.0, SVG Export Plug-In . SVG Version: 6.00 Build 0)  -->
<svg version="1.1" xmlns="http://www.w3.org/2000/svg" xmlns:xlink="http://www.w3.org/1999/xlink" x="0px" y="0px"
	 viewBox="-270 190.8 53.9 41.1" style="enable-background:new -270 190.8 53.9 41.1;" xml:space="preserve">
<style type="text/css">
	.st0{fill:#FFFFFF;}
	.st1{stroke:#FFFFFF;stroke-width:3;stroke-linecap:round;stroke-miterlimit:10;}
</style>
<g id="Calque_1">
	<g id="Calque_1_1_">
		<path class="st0" d="M-219.7,190.8l-18.1,2l-28.8-2c-0.9,0-1.8,0.3-2.4,1c-0.7,0.7-1,1.6-1,2.5l1.5,29.9c0,0.9,0.4,1.8,1.1,2.4
			s1.6,0.9,2.5,0.8l3.9-0.4l-1.7,3.4c-0.2,0.4-0.1,0.9,0.2,1.2c0.2,0.2,0.5,0.3,0.8,0.3c0.1,0,0.3,0,0.4-0.1l17.5-7.2l18.6,6.1
			c0.1,0,0.2,0.1,0.3,0.1c0.3,0,0.6-0.1,0.8-0.4c0.3-0.3,0.3-0.8,0.1-1.2l-1.8-4.3l3.1,0.2c1.8,0.1,3.3-1.2,3.5-3l3-27.6
			c0.1-1-0.2-1.9-0.9-2.7C-217.8,191-218.7,190.8-219.7,190.8z M-220.2,222c-0.1,1.2-1.2,2.2-2.5,2.1l-4.7-0.3l2.5,5.8l-0.1,0.1l0,0
			l-17.5-5.7l-1.4-0.5l-14.4,1.4c-1.3-0.1-2.2-1.2-2.1-2.5l1.8-24.4c0.1-1.2,1-2.1,2.2-2.2l24.1-2.7l12.7-1.3c0.7,0,1.4,0.2,1.8,0.7
			c0.5,0.5,0.7,1.2,0.6,1.9L-220.2,222z"/>
	</g>
	<g id="Calque_1_2_">
		<path class="st1" d="M-250.4,203.5l24.7-2.7"/>
	</g>
	<g id="Calque_1_3_">
		<path class="st1" d="M-251.6,216.7l24.3-2.6"/>
	</g>
	<g id="Calque_1_4_">
		<path class="st1" d="M-251,210.1l24.5-2.7"/>
	</g>
</g>
<g id="Calque_2">
</g>
</svg>
