<svg xmlns="http://www.w3.org/2000/svg" viewBox="0 0 68.03 68.03"><defs><style>.cls-1{fill:#cc7c46;}.cls-2{fill:#070b0b;}.cls-3{fill:#0b080c;}.cls-4{fill:#090d0d;}.cls-5{fill:#070707;}.cls-6{fill:#b35821;}.cls-7{fill:#84d1d6;}</style></defs><title>menu</title><path class="cls-1" d="M31.79 8.2c-15.59-2.12-22.79 6.51-25.55 19.5-2.14-.75-3.53.78-4.34 3.17a15.18 15.18 0 0 0 0 5.47c.73 3 1.3 5.07 3.2 3.72 1 18.22 15.29 26.35 21.95 24.64 13.23-3.4 19.95-16.44 21.67-29.8 1.81-14.02-3.43-24.9-16.93-26.7z"/><path class="cls-2" d="M25.06 35.71a1 1 0 0 1-.71-.3l-6.07-6.15a1 1 0 1 1 1.42-1.4l6.07 6.14a1 1 0 0 1-.71 1.71z"/><path class="cls-3" d="M24.5 37.58a1 1 0 0 1-.37-.07l-7.26-2.94a1 1 0 1 1 .75-1.85l7.26 2.94a1 1 0 0 1-.38 1.92z"/><path class="cls-4" d="M52.32 21.36c-.59-5.15-3.56-10-6-12-5.67-5-11.74-5.89-16.62-6.63h-.19a31.62 31.62 0 0 0-15.83 3.07l-.16.11a27.26 27.26 0 0 0-8.33 14.23 19.72 19.72 0 0 0-.12 8.25l.07.23 3.75 4.18.28.42 1.15-.08.26-.51 2.3-6.82 4.34-7.67 6.36.26h.25l11.44 4.43 6.85-.76 3.68 2 2.15 1.79.4 10.31 3.32-7.87.12-.12.54-6.74v-.1z"/><path class="cls-5" d="M29.84 53.07a1 1 0 0 1-.77-.37c-.82-.89-7.95-2.48-10.43-1.83a1 1 0 0 1-.51-1.93c2.74-.72 11 .72 12.49 2.49a1 1 0 0 1-.78 1.64z"/><path class="cls-1" d="M27.66 60.51c-1.11-1.63-2-4-2.75-7.85l-.17-.72c.2-7 0-15.76.18-20.55l.08-.62a1.5 1.5 0 0 1 3 .17c.32 5.13.92 11.38 1.68 10.94.4-.51.21-8.3-.08-14.6.25-.87.68-1.69 1.42-1.73 1.09-.07 1.76.78 1.95 2 .35 6.21.75 12 1.68 13.35.83.37.31-7.26.19-14.32 0-1.64.24-2.8 1.35-2.86 1.41.23 1.63 1.08 1.82 3 .61 6 .87 13.53 1.41 14.42.63-1 .9-6.86 1.11-12.14.2-1.38.39-2.84 1.69-3 1.36.13 1.65 1.46 1.86 3.13 0 5.47.13 10.67.56 14.53a1.5 1.5 0 0 0 2.75.64 16.6 16.6 0 0 1 2.37-3.23 3.17 3.17 0 0 1 .94-.56c2-.84 3.14.6 1.75 2.18-1.66 1.89-2.6 4.66-3.52 7.93-.94 2.86-4.15 5.81-6.17 8.89a15.23 15.23 0 0 1-5 3.91c-2.56 1.14-5.76-.08-5.76-.08-.5.03-4-2.34-4.34-2.83z"/><path class="cls-6" d="M31.46 63.63a.49.49 0 0 1-.18 0 14 14 0 0 1-4.08-2.93c-2.71-2.59-2.91-19.26-2.79-29 .15-.79.52-2.64 2.37-2.7 1.49 0 1.65 1.9 1.73 2.95v.38c0 .33.35 2 .73 3.88l-.06-9.11c.34-1.87 1-2.15 2.25-2.05 1.52.11 1.87 1.37 2 2.45.08.6.49 3.32.92 6.12l-.08-8.53a.51.51 0 0 1 0-.1 2 2 0 0 1 4.06 0c.2 2.58.72 7.76 1.11 11.51l1.09-9.11a1.87 1.87 0 0 1 .7-1.67 1.75 1.75 0 0 1 1.77-.03c.05 0 1.51.56 1.51 2.88s.31 14.32.48 15.71a1.61 1.61 0 0 0 .84.42.48.48 0 0 0 .4-.15.5.5 0 0 1 .69.72 1.5 1.5 0 0 1-1.16.43 2.61 2.61 0 0 1-1.63-.86c-.4-.49-.63-16.11-.63-16.27 0-1.58-.83-1.93-.87-1.94a1 1 0 0 0-.78 0 1.12 1.12 0 0 0-.28.91l-1.57 13.56a.5.5 0 0 1-.5.44.5.5 0 0 1-.5-.45c0-.12-1.25-11.64-1.58-16a1 1 0 0 0-1.2-.92 1 1 0 0 0-.87.95l.14 15.39a.5.5 0 0 1-1 .08c-.07-.47-1.81-11.64-2-13s-.62-1.54-1.09-1.58c-.78-.06-1-.07-1.19 1.15l.1 14.2a.5.5 0 0 1-.45.5.49.49 0 0 1-.54-.4c-.07-.33-1.67-8.2-1.77-9v-.42c-.05-.66-.16-2-.69-2-.63 0-1.12.33-1.41 1.8-.18 15.67.77 26.49 2.49 28.14a13.39 13.39 0 0 0 3.75 2.68.5.5 0 0 1-.23.97z"/><path class="cls-7" d="M50.79 12.67a24.2 24.2 0 0 1 2.51 13.69l7.7 2.49-3.7-5.5 9-8.66-9 .31-.3-9.72-6.23 7.39z"/></svg>