<svg xmlns="http://www.w3.org/2000/svg" viewBox="0 0 68.03 68.03"><defs><style>.cls-1{fill:#fff;}.cls-2{fill:#522525;}.cls-3{fill:#cd3f3e;}.cls-4{fill:#cc8a5e;}.cls-5{fill:#010101;}.cls-6{fill:#0e0d0b;}.cls-7{fill:#71cef5;}</style></defs><title>menu</title><path class="cls-1" d="M53.59 36.49a28.11 28.11 0 0 1-.47 3.63l-.32-.12a100.4 100.4 0 0 1-36.16 2.47 24.74 24.74 0 0 1-.79-3.16c11.08.87 26.84-.08 37.74-2.82z"/><path class="cls-2" d="M52.8 40l.32.07a25.14 25.14 0 0 1-4.06 9.62c-4.32-1.9-7.66-2.52-13.49 0a14 14 0 0 0-13.77 1.64 23.73 23.73 0 0 1-5.16-8.81 100.4 100.4 0 0 0 36.16-2.52z"/><path class="cls-3" d="M35.56 49.72a14 14 0 0 0-13.76 1.61 19.65 19.65 0 0 0 13.76 6.67c5-.29 10-3.36 13.49-8.28-4.32-1.88-7.66-2.5-13.49 0z"/><path class="cls-4" d="M65 34.48c-.34-2.92-2.8-4.48-6-4.69a86.5 86.5 0 0 0-1.71-9.15c-10.55-28.25-42.29-24.75-49.8 3.75a43.05 43.05 0 0 0-.1 9.72c-3-.38-4.12 2.15-4.56 6.34 0 6.16 2.88 8.46 6.82 7.59.49 1.84 1 3 1.26 3 6.92 7.13 16.41 16 24.83 15.87 9.25.17 15.32-9.6 23.33-19 .5-.38.77-2.16.82-4.76 4.11-.43 6-3.15 5.11-8.67zm-11.88 5.64a25.14 25.14 0 0 1-4.06 9.62c-3.46 4.92-8.47 8-13.49 8.28a19.65 19.65 0 0 1-13.77-6.68 23.73 23.73 0 0 1-5.16-8.81 24.74 24.74 0 0 1-.79-3.16c11.09.82 26.85-.13 37.75-2.87a28.11 28.11 0 0 1-.48 3.62z"/><rect class="cls-5" x="37.45" y="34.02" width="1" height="1.62"/><rect class="cls-5" x="30.99" y="34.33" width="1" height="1.62"/><path class="cls-5" d="M15 27.29a1 1 0 0 1-.91-1.41 9.6 9.6 0 0 1 7-5.82 1 1 0 1 1 .43 2 7.62 7.62 0 0 0-5.52 4.64 1 1 0 0 1-1 .59z"/><path class="cls-5" d="M50 24.66a1 1 0 0 1-.9-.55 7.64 7.64 0 0 0-5.93-4.33 1 1 0 1 1 .36-2 9.62 9.62 0 0 1 7.36 5.41 1 1 0 0 1-.45 1.34 1 1 0 0 1-.44.13z"/><path class="cls-5" d="M18 31.28a.75.75 0 0 1-.51-1.3c3.4-3.16 7.06-3.57 11.21-1.28a.75.75 0 1 1-.78 1.3c-3.55-2-6.55-1.63-9.46 1.06a.75.75 0 0 1-.46.22z"/><path class="cls-5" d="M39.67 29.81a.75.75 0 0 1-.51-1.3c3.42-3.16 7.08-3.58 11.21-1.27a.75.75 0 1 1-.73 1.31c-3.53-2-6.54-1.64-9.46 1.07a.75.75 0 0 1-.51.19z"/><path class="cls-6" d="M21.8 51.84a.5.5 0 1 1 .5-.5.5.5 0 0 1-.5.5z"/><polygon class="cls-6" points="49.06 50.24 49.05 50.24 49.05 49.24 49.06 50.24"/><path class="cls-5" d="M53.46 36c-10.2 2.57-25.66 3.74-37.59 2.86h-.65l.12.64a25.36 25.36 0 0 0 .76 3.06.51.51 0 0 0 .12.33 24.33 24.33 0 0 0 5.2 8.82 20.13 20.13 0 0 0 14.16 6.84c5.16-.33 10.35-3.55 13.88-8.55a25.81 25.81 0 0 0 4.14-9.81 28.61 28.61 0 0 0 .48-3.69v-.68zm-17.89 21.52a19 19 0 0 1-13-6.12 13.44 13.44 0 0 1 12.79-1.22l.2.09.2-.08c5.33-2.29 8.5-1.91 12.51-.23-3.34 4.47-8.06 7.29-12.7 7.56zm13.29-8.4c-4.23-1.8-7.7-2.3-13.3.06a14.47 14.47 0 0 0-13.68 1.48 23.33 23.33 0 0 1-4.5-7.56 101.1 101.1 0 0 0 10.57.56 101.83 101.83 0 0 0 24.54-3 24.77 24.77 0 0 1-3.63 8.45zm3.85-9.55a100.54 100.54 0 0 1-35.71 2.43c-.21-.7-.4-1.4-.56-2.15 11.67.78 26.48-.34 36.58-2.76-.02.91-.17 1.67-.32 2.47z"/><path class="cls-7" d="M51.6 29.21s2.68 5.76 4.81 3.63l-4.81-3.63z"/><path class="cls-7" d="M17 31.82s-2.23 6-4.52 4l4.52-4z"/></svg>