<svg id="Calque_1" data-name="Calque 1" xmlns="http://www.w3.org/2000/svg" viewBox="0 0 68.03 68.03"><defs><style>.cls-1{fill:#f4f4f4;}.cls-2{fill:#ebebeb;}.cls-3{fill:#fcfcfc;}.cls-4{fill:#d5d5d5;}.cls-5{fill:#231f20;}</style></defs><title>banabites</title><path class="cls-1" d="M11.18,43.31l15.07,2.46s3.62,0.59,5.42-.93c1.37-1.15,4.47-9,4.93-11S36.92,17,36.92,17s0.36-4-3.25-4.6-16.35-.19-16.35-0.19-0.43-1.06-2.84.75S7.25,18.8,7.25,18.8a9.47,9.47,0,0,0-1.57,4.88C5.77,26.16,7.46,39.4,7.46,39.4S8,42.8,11.18,43.31Z"/><path class="cls-2" d="M28.82,45.69a3.25,3.25,0,0,0,2.36-3.18c0.11-1.26-.2-9.27-0.55-13.48-0.41-5.1-3.06-4.83-4-5S13.11,22.9,10.35,22.53,5.82,23,5.81,25.15,7.46,39.4,7.46,39.4s0.4,4,3.71,4.57S26.84,46.53,28.82,45.69Z"/><path class="cls-3" d="M33.67,12.45a1.72,1.72,0,0,1,1.57,2.42,63.61,63.61,0,0,1-3.73,6.92c-1.3,1.76-4.59,1.5-4.59,1.5s-14.21-1.19-16.84-1.5C6.52,21.37,7,19,7.79,18.22s5-4.84,5.57-5.39a6.44,6.44,0,0,1,4.3-1.57Z"/><path class="cls-4" d="M36.75,15.32c-0.14-.49-0.6-1-1.32.67s-3.64,6.89-3.64,6.89a8,8,0,0,0-.5,3.65c0.2,2.1.55,15.23,0.51,15.92a0.66,0.66,0,0,0,1.14.49c0.27-.46,3.49-7.52,3.65-9.06S36.88,15.81,36.75,15.32Z"/><ellipse class="cls-5" cx="25.1" cy="40.42" rx="1.87" ry="2.5" transform="translate(-22 47.14) rotate(-66.28)"/><ellipse class="cls-5" cx="12.92" cy="38.79" rx="1.87" ry="2.5" transform="translate(-27.8 35.02) rotate(-66.28)"/><ellipse class="cls-5" cx="11.9" cy="27.91" rx="2.02" ry="2.5" transform="translate(-18.44 27.58) rotate(-66.28)"/><ellipse class="cls-5" cx="24.56" cy="29.32" rx="2.02" ry="2.5" transform="translate(-12.16 40.01) rotate(-66.28)"/><ellipse class="cls-5" cx="29.45" cy="14.3" rx="2.32" ry="0.85" transform="matrix(1, -0.03, 0.03, 1, -0.47, 1.01)"/><ellipse class="cls-5" cx="15.84" cy="15.85" rx="2.32" ry="0.85" transform="translate(-0.53 0.55) rotate(-1.94)"/><ellipse class="cls-5" cx="17.86" cy="13.39" rx="2.1" ry="0.78" transform="matrix(1, -0.03, 0.03, 1, -0.44, 0.61)"/><ellipse class="cls-5" cx="27.97" cy="16.85" rx="2.38" ry="0.91" transform="translate(-0.55 0.96) rotate(-1.94)"/><ellipse class="cls-5" cx="13.76" cy="18.45" rx="2.38" ry="0.91" transform="translate(-0.62 0.48) rotate(-1.94)"/><ellipse class="cls-5" cx="26.24" cy="19.61" rx="2.46" ry="0.97" transform="translate(-0.65 0.9) rotate(-1.94)"/><ellipse class="cls-5" cx="35.9" cy="20.8" rx="2.2" ry="0.33" transform="translate(11.71 54.51) rotate(-84.42)"/><ellipse class="cls-5" cx="33.35" cy="26.6" rx="2.25" ry="0.38" transform="translate(3.63 57.21) rotate(-84.42)"/><ellipse class="cls-5" cx="34.67" cy="29.1" rx="2.12" ry="0.32" transform="translate(2.33 60.77) rotate(-84.42)"/><ellipse class="cls-5" cx="35.69" cy="31.36" rx="2.11" ry="0.3" transform="translate(1 63.83) rotate(-84.42)"/><ellipse class="cls-5" cx="33.32" cy="37.65" rx="2.11" ry="0.3" transform="translate(-7.39 67.15) rotate(-84.42)"/><path class="cls-1" d="M30.39,29A8.23,8.23,0,0,0,28,33.92c-0.36,3.08-.48,14.35-0.48,14.35a4.59,4.59,0,0,0,2.08,4c1.32,0.81,10.57,6.18,10.57,6.18a10.37,10.37,0,0,0,8.34,1.09,1,1,0,0,0,.31-0.16l9.27-7.25s1.66-1.43,2.56-6.11,1.85-10.84,1.85-10.84a5.61,5.61,0,0,0-3.11-6.94c-4.76-2.24-12-4.72-12-4.72s-3.05-1.35-5.57-.19S30.39,29,30.39,29Z"/><path class="cls-2" d="M28,33.92c0.19-2.72,2.92-2.09,2.92-2.09l12.31,5.74a8.46,8.46,0,0,1,3.73,7s-1,8.76-1.14,11.73-1.69,3.55-2.48,3.44a7.26,7.26,0,0,1-2.77-1c-2-1-9.91-5.8-11-6.41a4.16,4.16,0,0,1-2.08-4C27.53,45.07,28,33.92,28,33.92Z"/><path class="cls-3" d="M60.17,28.69c1.95,1.25,1.92,2.22,1.45,2.57S53.43,36,50.54,37.82c-2.17,1.34-5.33-.18-5.33-0.18s-10.72-5.23-12.92-6.05S30,29.34,30.91,28.77,42,23.28,42,23.28c0.77-.24,2-1,5.15.18S58.23,27.44,60.17,28.69Z"/><path class="cls-4" d="M62.75,34.09c0.08-.37-0.32-1.52-1.77-0.86-2.1.94-9.47,5.47-9.47,5.47a6.44,6.44,0,0,0-3.5,4.7c-0.25,2.09-1.46,13.95-1.46,13.95s0.05,2.66,1.8,2.23c0,0,8.46-6.39,9.45-7.16s2.2-2.66,2.82-6.07C61.11,43.61,62.71,34.67,62.75,34.09Z"/><ellipse class="cls-5" cx="31.99" cy="37.77" rx="1.65" ry="2.45" transform="translate(-13.6 18.49) rotate(-26.81)"/><ellipse class="cls-5" cx="41.89" cy="43.03" rx="1.81" ry="2.69" transform="translate(-14.9 23.52) rotate(-26.81)"/><ellipse class="cls-5" cx="36.53" cy="45.74" rx="1.58" ry="2.38" transform="translate(-16.7 21.39) rotate(-26.81)"/><ellipse class="cls-5" cx="40.86" cy="53.69" rx="1.58" ry="2.38" transform="translate(-21.27 27.39) rotate(-29.79)"/><ellipse class="cls-5" cx="31.11" cy="49.17" rx="1.4" ry="2.18" transform="translate(-22.02 25.45) rotate(-33.62)"/><ellipse class="cls-5" cx="37.12" cy="29.4" rx="1.15" ry="2.35" transform="translate(6.48 65.5) rotate(-88.07)"/><ellipse class="cls-5" cx="41.91" cy="31.71" rx="1.16" ry="2.38" transform="translate(8.81 72.52) rotate(-88.07)"/><ellipse class="cls-5" cx="47.06" cy="34.11" rx="1.19" ry="2.46" transform="translate(10.27 79.11) rotate(-86.67)"/><ellipse class="cls-5" cx="45.27" cy="25.61" rx="1.1" ry="2.25" transform="translate(18.31 70.08) rotate(-88.26)"/><ellipse class="cls-5" cx="49.6" cy="27.83" rx="1.16" ry="2.38" transform="translate(20.28 76.56) rotate(-88.26)"/><ellipse class="cls-5" cx="54.76" cy="30.1" rx="1.19" ry="2.46" transform="translate(21.71 83.13) rotate(-86.86)"/><ellipse class="cls-5" cx="59.36" cy="38.39" rx="2.31" ry="1.01" transform="translate(1.11 78.43) rotate(-67.39)"/><ellipse class="cls-5" cx="50.44" cy="53.57" rx="2.33" ry="0.98" transform="translate(-19.7 75.79) rotate(-64.3)"/></svg>