<?xml version="1.0" encoding="utf-8"?>
<!-- Generator: Adobe Illustrator 19.2.0, SVG Export Plug-In . SVG Version: 6.00 Build 0)  -->
<svg version="1.1" id="Layer_1" xmlns="http://www.w3.org/2000/svg" xmlns:xlink="http://www.w3.org/1999/xlink" x="0px" y="0px"
	 viewBox="0 0 64 64" style="enable-background:new 0 0 64 64;" xml:space="preserve">
<style type="text/css">
	.st0{fill:#FFFFFF;}
</style>
<g>
	<g>
		<path class="st0" d="M16.9,62h-14c-1.7,0-3-1.3-3-3V33c0-1.7,1.3-3,3-3h14c1.7,0,3,1.3,3,3v26C19.9,60.7,18.6,62,16.9,62z"/>
	</g>
	<g>
		<path class="st0" d="M51.2,61H24.9c-3.4,0-7-2.2-7-6c0-0.6,0.4-1,1-1s1,0.4,1,1c0,2.5,2.6,4,5,4h26.3c2.4,0,4.4-1.7,4.7-3.9
			c0.1-1,0-1.9-0.5-2.7c-0.2-0.3-0.2-0.6,0-0.9c0.1-0.3,0.4-0.5,0.7-0.5c2.2-0.3,3.8-2.3,3.8-4.4c0-0.9-0.3-1.8-0.8-2.5
			c-0.2-0.4-0.2-0.7-0.2-1c0.1-0.3,0.3-0.5,0.5-0.6c1.5-0.8,2.4-2.3,2.4-4c0-1.5-0.7-2.8-1.9-3.7c-0.3-0.2-0.4-0.5-0.4-0.8
			s0.2-0.6,0.4-0.8c1.5-1,2.2-2.8,1.9-4.5c-0.4-2.1-2.4-3.6-4.6-3.6H40.9c-0.3,0-0.5-0.1-0.7-0.3s-0.3-0.6-0.3-0.9
			c0-0.5,0.1-1.2,0.3-1.9c0.1-0.6,0.2-1.2,0.3-2c0.2-1.3,0.4-3.3,0.4-5.1c0-5-1.5-8.3-4.5-10.1c-2-1.2-4.3-0.6-5.4-0.2l0.9,10
			c0,0.4,0,0.8-0.2,1.1l-12,18.7c-0.3,0.5-0.9,0.6-1.4,0.3s-0.6-0.9-0.3-1.4l11.9-18.7L28.9,4c0-0.4,0.2-0.8,0.5-1
			c0.2-0.1,4.4-2.2,8,0c3.7,2.3,5.5,6.2,5.5,11.9c0,2-0.3,4.1-0.4,5.4c-0.1,0.7-0.2,1.4-0.3,2c0,0.3-0.1,0.5-0.1,0.7h15.2
			c3.2,0,6,2.2,6.6,5.3c0.4,2.1-0.3,4.2-1.7,5.7c1.2,1.2,1.8,2.8,1.8,4.5c0,2.1-1,4-2.6,5.2c0.4,0.9,0.6,1.8,0.6,2.8
			c0,2.7-1.8,5.2-4.3,6.1c0.3,0.9,0.4,1.8,0.2,2.8C57.4,58.6,54.5,61,51.2,61z"/>
	</g>
</g>
</svg>
