<svg xmlns="http://www.w3.org/2000/svg" viewBox="0 0 130.8 50.1" enable-background="new 0 0 130.8 50.1"><style type="text/css">.st0{fill:#FFCF00;} .st1{fill:#231F20;} .st2{fill:#001FB4;} .st3{fill:#EA2263;} .st4{fill:#7553FF;} .st5{fill:#0000E0;} .st6{fill:#2A1FB4;} .st7{fill:#1D1C1A;} .st8{fill:#FFFFFF;} .st9{fill:none;stroke:#231F20;stroke-miterlimit:10;} .st10{fill:#FFFFFF;stroke:#231F20;stroke-miterlimit:10;} .st11{fill:#FF0000;} .st12{fill:#FF1F51;} .st13{fill:#EA2243;} .st14{fill:#EA0021;} .st15{fill:none;stroke:#FFFFFF;stroke-width:2;stroke-miterlimit:10;} .st16{fill:none;} .st17{fill:#FF002C;} .st18{fill:none;stroke:#FFFFFF;stroke-width:2;stroke-linecap:round;stroke-miterlimit:10;} .st19{stroke:#000000;stroke-miterlimit:10;} .st20{fill:#FFFFFF;stroke:#000000;stroke-miterlimit:10;}</style><g id="Calque_1"><path class="st16" d="M49 40.8v.8c0 1.3 1.1 2.3 2.4 2.3l54.8-.8h.1l19.3 4.2.5-.4-.4.3-3.2-4.6 4.8-.2c1.2-.1 2.2-1.1 2.2-2.3l.2-36.8c0-.7-.3-1.3-.8-1.8-.5-.4-1.2-.6-1.9-.5l-74 12.4v.1"/><path class="st8" d="M129.6.8c-.7-.6-1.7-.9-2.7-.8l-74.1 12.4c-.4-.9-1.4-1.6-2.5-1.7l-47.4-2.7c-1.7-.1-3 1.3-2.9 3l1.5 31.9c.1 1.6 1.5 2.8 3.1 2.7l4.8-.4-2.1 4.2c-.3.3.2.8.7.6l17.8-6.5 22.2-2.6v.8c0 1.8 1.5 3.2 3.3 3.2h.1l54.7-.8 19.3 4.2h.2c.4 0 .7-.2.9-.5.2-.4.2-.8 0-1.2l-2.1-3.1 3-.1c1.8-.1 3.2-1.5 3.2-3.3l.2-36.8c0-.9-.5-1.9-1.2-2.5zm-111.9 18.8c-.5 0-.9.4-.9.9v14.1c0 .5-.4.9-.9.9h-.8c-.5 0-.9-.4-.9-.9v-14.1c0-.5-.4-.9-.9-.9h-3.5c-.5 0-.9-.4-.9-.9v-.7c0-.5.4-.9.9-.9h11.7c.5 0 .9.4.9.9v.6c0 .5-.4.9-.9.9h-3.8zm15.4 15.6l-.5.4c-.3.3-.8.2-1.1-.1-.7-.8-1.9-2.4-3.2-4-.3-.5-1-.5-1.3 0l-3.2 4c-.3.3-.8.4-1.1.1l-.5-.4c-.3-.3-.4-.8-.1-1.1l3.8-4.8c.3-.3.3-.8 0-1.1l-3.5-4.4c-.3-.3-.2-.8.1-1.1l.5-.4c.3-.3.8-.2 1.1.1l2.9 3.7c.4.5 1.1.5 1.4 0l2.9-3.7c.3-.3.8-.4 1.1-.1l.5.4c.3.3.4.8.1 1.1l-3.5 4.4c-.3.3-.3.8 0 1.1l3.8 4.8c.3.4.2.9-.2 1.1zm10.8-12.4c0 .5-.4.9-.9.9h-1.5c-.5 0-.9.4-.9.9v6.9c0 1.1.4 1.6 1.3 1.6h.3l.5-.1c.5-.1 1 .2 1.1.7l.1.4c.1.5-.2 1-.7 1.1l-.4.1c-.5.1-1 .2-1.5.2-2.1 0-3.1-1.2-3.1-3.5v-7.4c0-.5-.4-.9-.9-.9h-1.3c-.5 0-.9-.4-.9-.9v-.5c0-.5.4-.9.9-.9h1.3c.5 0 .9-.4.9-.9v-2.8c0-.5.4-.9.9-.9h.7c.5 0 .9.4.9.9v2.8c0 .5.4.9.9.9h1.4c.5 0 .9.4.9.9v.5zm85.6 17.3c0 1.2-1 2.3-2.2 2.3l-4.8.2 3.2 4.6.4-.3-.5.4-19.3-4.2h-.1l-54.8.8c-1.3 0-2.3-1-2.4-2.3v-.8l-.6-24.6c0-1.2.8-2.2 2-2.4l2.7-.4 73.9-12.4c.7-.1 1.4.1 1.9.5s.8 1.1.8 1.8l-.2 36.8z"/><path class="st8" d="M72.6 24.9c.6 6.5-2.3 13.5-9 14.1-1.7.2-4.9-.1-6.8-2.7-1.5-2-1.8-4.6-1.8-5.3-.3-2.8.1-7.2 2.7-10.7 1.7-2.3 4.2-3 6.2-3.2 4.5-.5 8.1 1.8 8.7 7.8zm-12-1.1c-1.3 2.8-1.2 5.5-1.1 6.9.3 3.1 1.4 4.6 3.8 4.4 4.5-.4 5-6.9 4.7-10-.1-1-.4-4.4-3.9-4.1-.7.1-2.3.3-3.5 2.8z"/><path class="st8" d="M79.1 31.5v1.7c.1 1.1.9 1.2 1.6 1.1.4 0 .7-.1.9-.2l-.6 2.2c-.2.8-.8 1.1-1.8 1.2-.5.1-1.6.1-2.7-.5-1.4-.7-1.5-2.1-1.6-2.6-.1-.6-.1-1.1 0-2.9l.8-12.8c0-.2.1-1.5 0-2.1 0-.5-.1-.9-.2-1.2l4.7-1.2-1.1 17.3z"/><path class="st8" d="M97.8 33.8c-.1.5-.4 2.1-2.3 2.2-1.1.1-2.5-.5-3.2-2.1-.4.7-1.5 2.6-4 2.8s-5.3-1.3-5.6-5.3c-.4-3.8 1.8-9.8 7-10.3 1.8-.2 2.7.6 3.1 1 .5-1 .5-1.1 1.4-1.2l2.6-.2c-1.4 3.1-1.5 8.6-1.3 10.3.2 2 1.1 2.4 2.6 2.1l-.3.7zm-9.3-.6c2.5-.2 3.1-5.9 2.9-7.5-.1-1.1-.9-1.2-1.3-1.2-1.8.2-3.3 3.8-3 6.4.1.9.2 2.4 1.4 2.3z"/><path class="st8" d="M104.1 29.1v1.7c.1 1.1.9 1.2 1.6 1.1.4 0 .7-.1.9-.2l-.8 2.2c-.2.8-.8 1.1-1.8 1.2-.5.1-1.6.1-2.7-.5-1.4-.7-1.5-2.1-1.6-2.6-.1-.6-.1-1.1 0-2.9l.8-12.8c0-.2.1-1.5 0-2.1 0-.5-.1-.9-.2-1.2l4.7-1.2-.9 17.3z"/><path class="st8" d="M122.8 31.3c-.1.5-.4 2.1-2.3 2.2-1.1.1-2.5-.5-3.2-2.1-.4.8-1.5 2.6-4 2.8s-5.3-1.2-5.7-5.2c-.4-3.8 1.8-9.8 7-10.3 1.8-.2 2.7.6 3.1 1 .5-1 .5-1.1 1.4-1.2l2.6-.2c-1.4 3.1-1.5 8.6-1.3 10.3.2 2 1.1 2.4 2.6 2.1l-.2.6zm-9.3-.5c2.5-.2 3.1-5.9 2.9-7.5-.1-1.1-.9-1.2-1.3-1.2-1.8.2-3.3 3.8-3 6.4 0 .9.1 2.4 1.4 2.3z"/></g></svg>