<svg xmlns="http://www.w3.org/2000/svg" viewBox="0 0 34.1 20" enable-background="new 0 0 34.1 20"><style type="text/css">.st0{fill:#FFFFFF;}</style><path class="st0" d="M32.8 6.7l-.2-.1c-.9-.6-2.2-.9-3.2-.9h-.3c-.9 0-.2-.6-.2-1.5l.6-2.1v-.9c0-.7-.5-1.2-1.2-1.2h-.5c-.6 0-.9.4-1.1 1-.4 1-1.1 2.4-2.6 3.7-1.6 1.4-3.5 1.9-4.6 2.4 0-2.5-2.1-4.5-4.8-4.5h-8.6c-2.7 0-4.9 2-5 4.4l-.9 8c0 2.5 2.2 4.5 5 4.5h8.6c2.3 0 4.3-1.4 4.8-3.4l2.1.3c.3 0 .6.1.8.2l2.1 1.2c.4.2.9.4 1.4.4h4.6c.6 0 1.6-.2 2.1-.6l1.5-1.3c.6-.5 1-1.3 1-2.1v-5.3c-.1-.9-.6-1.7-1.4-2.2zm-19.1 12.3h-8.5c-2.5 0-4.5-1.8-4.5-4l.9-8.1c0-2.2 2-4 4.5-4h8.6c2.5.1 4.3 1.9 4.3 4.1l-.8 8c0 2.2-2 4-4.5 4z"/></svg>