<?xml version="1.0" encoding="utf-8"?>
<!-- Generator: Adobe Illustrator 19.2.0, SVG Export Plug-In . SVG Version: 6.00 Build 0)  -->
<svg version="1.1" id="Layer_1" xmlns="http://www.w3.org/2000/svg" xmlns:xlink="http://www.w3.org/1999/xlink" x="0px" y="0px"
	 viewBox="0 0 84 64" style="enable-background:new 0 0 84 64;" xml:space="preserve">
<style type="text/css">
	.st0{fill:#FFFFFF;}
</style>
<path class="st0" d="M82.7,22L61.6,1.3c-0.4-0.4-1-0.4-1.4,0l-9.4,9.2c-0.2,0.2-0.3,0.4-0.3,0.7s0.1,0.5,0.3,0.7l1.6,1.6l-3.5,3.4
	c-0.3,0.2-0.6,0.4-1,0.4l-7.1-0.5c-1.4-0.1-2.7,0.3-3.8,1.1L34.2,17c-0.2-0.1-0.5-0.3-0.7-0.5l-2.2-2.2l1.9-1.8
	c0.2-0.2,0.3-0.4,0.3-0.7s-0.1-0.5-0.3-0.7l-9.4-9.2c-0.4-0.4-1-0.4-1.4,0L1.3,22.6C1.1,22.7,1,23,1,23.3s0.1,0.5,0.3,0.7l9.4,9.2
	c0.2,0.2,0.4,0.3,0.7,0.3c0.3,0,0.5-0.1,0.7-0.3l1.5-1.5l6.4,8.9l-2.1,2c-0.7,0.6-1,1.5-1,2.5c0,1.1,0.5,2.2,1.3,3
	c0.8,0.7,1.8,1.2,2.8,1.2c-0.1,0.4-0.2,0.8-0.2,1.2c0,1.1,0.4,2,1.1,2.7c0.7,0.7,1.7,1.1,2.8,1.1c0.2,0,0.4,0,0.6-0.1
	c0,0.2-0.1,0.3-0.1,0.5c0,1.1,0.4,2.1,1.2,2.8c0.8,0.7,1.8,1.2,2.9,1.2c0.3,0,0.5,0,0.8-0.1c0,1.1,0.5,2.1,1.3,2.9l0.1,0.1
	c0.8,0.8,1.9,1.2,3,1.2c0.9,0,1.7-0.3,2.4-0.9l2.5-2.5l1.2,1.2c0.7,0.7,1.8,1.1,3,1.1c1.2,0,2.4-0.4,3.1-1.1
	c0.7-0.7,1.1-1.7,1.2-2.8c0.6,0.2,1.3,0.3,1.9,0.3c1.2,0,2.2-0.3,2.8-1c0.8-0.8,1.2-1.8,1.3-2.9c0.4,0.1,0.8,0.2,1.3,0.2
	c1.2,0,2.3-0.4,2.9-1c0.8-0.7,1.2-1.9,1.2-3.1c0-0.2,0-0.3,0-0.4c0.2,0,0.3,0,0.5,0c1.2,0,2.3-0.4,3-1.1s1.1-1.8,1.1-2.9
	c0-1.3-0.4-2.4-1.2-3.2l-0.8-0.8l4.7-7.5l3.8-3.5l1.7,1.7c0.2,0.2,0.4,0.3,0.7,0.3s0.5-0.1,0.7-0.3l9.4-9.2c0.2-0.2,0.3-0.4,0.3-0.7
	S82.9,22.2,82.7,22z M13,24.8c-0.9,0.8-2.2,0.8-3.1,0c-0.9-0.9-0.9-2.2,0-3.1c0.8-0.8,2.2-0.8,3.1,0C13.9,22.6,13.9,23.9,13,24.8z
	 M19.6,46.7c-0.4-0.5-0.7-1-0.7-1.6c0-0.3,0.1-0.7,0.4-1.1l2.9-2.9c0.3-0.3,0.7-0.4,1.1-0.4c0.6,0,1.2,0.3,1.6,0.7c0,0,0,0,0.1,0.1
	c0.4,0.4,0.6,1,0.6,1.5c0,0.3-0.1,0.7-0.4,1.1L22.4,47C21.7,47.6,20.4,47.5,19.6,46.7z M24.7,52.4c-0.4,0-0.9-0.1-1.4-0.5
	c-0.4-0.4-0.5-0.9-0.5-1.3c0-0.7,0.3-1.5,0.9-2l4-3.9c0.6-0.6,1.3-0.9,2.1-0.9c0.5,0,1,0.2,1.4,0.5c0.3,0.3,0.5,0.8,0.5,1.3
	c0,0.7-0.3,1.5-0.9,2l-4,3.9C26.2,52.1,25.4,52.4,24.7,52.4z M31,56.2c-0.9,0.8-2.4,0.9-3.2,0c-0.4-0.4-0.6-0.9-0.6-1.4
	c0-0.6,0.2-1.2,0.7-1.6l3.5-3.4c0.4-0.4,1-0.7,1.7-0.7c0.6,0,1.1,0.2,1.5,0.6c0,0,0,0,0.1,0.1c0.3,0.4,0.5,0.9,0.5,1.4
	c0,0.6-0.2,1.2-0.7,1.6L31,56.2z M38.3,57.8c0,0.1-0.1,0.1-0.2,0.2l-2.7,2.7c-0.3,0.3-0.7,0.3-1,0.3c-0.6,0-1.2-0.3-1.7-0.7
	c0,0-0.1,0-0.1-0.1c-0.4-0.5-0.7-1-0.7-1.6c0-0.3,0.1-0.6,0.4-1L35,55c0.3-0.3,0.7-0.3,0.9-0.3c0.6,0,1.2,0.3,1.7,0.7
	c0,0,0,0,0.1,0.1C38.5,56.2,38.7,57.2,38.3,57.8z M61.3,47.4c-0.6,0.6-2.3,0.7-3.2,0c-0.1,0-0.1-0.1-0.2-0.1l-4.6-4.6
	c-0.4-0.4-1-0.4-1.4,0c-0.4,0.4-0.4,1,0,1.4l4.6,4.6c0.1,0.1,0.2,0.1,0.2,0.2c0,0,0,0.1,0.1,0.1c0.3,0.3,0.4,0.7,0.4,1.3
	c0,0.7-0.2,1.3-0.6,1.7c-0.3,0.3-0.9,0.5-1.5,0.5c-0.9,0-1.6-0.3-1.9-0.6c-0.1-0.2-0.2-0.3-0.4-0.5L49,47.7c-0.4-0.4-1-0.4-1.4,0
	c-0.4,0.4-0.4,1,0,1.4l3.8,3.7c0.1,0.1,0.1,0.2,0.2,0.2c0.4,0.7,0.4,2-0.4,2.7c-0.2,0.2-0.8,0.4-1.4,0.4c-1,0-1.9-0.3-2.2-0.6
	l-3.1-3.3c-0.4-0.4-1-0.4-1.4,0c-0.4,0.4-0.4,1,0,1.4l2.1,2.2c0,0.1,0.1,0.2,0.2,0.2c0.3,0.3,0.5,0.9,0.5,1.6c0,0.7-0.2,1.3-0.6,1.6
	c-0.4,0.4-1,0.6-1.7,0.6c-0.7,0-1.3-0.2-1.6-0.5l-1.5-1.5c0.3-1.3-0.2-2.7-1.2-3.8l-0.1-0.1c-0.7-0.6-1.5-1-2.3-1.2
	c0.2-0.5,0.3-1.1,0.3-1.6c0-1.1-0.4-2.1-1.2-2.9l-0.1-0.1c-0.7-0.6-1.5-1-2.5-1c0.2-0.5,0.3-1.1,0.3-1.6c0-1.1-0.4-2-1.1-2.7
	c-0.7-0.7-1.7-1.1-2.8-1.1c-0.7,0-1.5,0.2-2.1,0.5c-0.2-0.8-0.6-1.6-1.2-2.3l-0.1-0.1c-1.3-1.2-3.4-1.5-4.8-0.7l-6.5-9l14.8-14.5
	l2.3,2.2c0.3,0.3,0.7,0.6,1.1,0.8c0.1,0,0.1,0.1,0.2,0.1l1.9,0.6l-7.5,7.4c-0.7,0.7-1.1,1.7-1.1,2.8c0,1.3,0.6,2.6,1.5,3.6
	c1.1,1,2.6,1.7,3.9,1.7c1,0,1.9-0.3,2.6-1l7.5-7.7l18.8,18c0.4,0.4,0.6,1.1,0.6,1.8C61.8,46.5,61.6,47.1,61.3,47.4z M65,33.1
	c-0.1,0.1-0.1,0.1-0.2,0.2l-4.6,7.2L43.1,24c0,0-0.1-0.1-0.2-0.1c-0.1,0-0.1-0.1-0.2-0.1c-0.1,0-0.1,0-0.2,0s-0.1,0-0.2,0
	c-0.1,0-0.2,0-0.3,0.1h-0.1c-0.1,0-0.1,0.1-0.2,0.1c0,0-0.1,0-0.1,0.1l-8.2,8.4c-0.3,0.3-0.7,0.4-1.2,0.4c-0.9,0-1.9-0.4-2.6-1.1
	c-0.6-0.6-0.9-1.4-0.9-2.2c0-0.5,0.2-1,0.5-1.3l0.7-0.7l7.9-7.8c0.7-0.7,1.7-1.1,2.7-1l7.1,0.6c0.9,0.1,1.8-0.3,2.5-0.9l3.5-3.5
	l15,14.7L65,33.1z"/>
</svg>
