<svg xmlns="http://www.w3.org/2000/svg" viewBox="0 0 30 30" enable-background="new 0 0 30 30"><style type="text/css">.st0{fill:none;stroke:#FFFFFF;} .st1{stroke:#FFFFFF;stroke-miterlimit:10;} .st2{fill:#FFFFFF;stroke:#FFFFFF;stroke-width:1.962;} .st3{fill:#FFFFFF;stroke:#FFFFFF;stroke-miterlimit:10;} .st4{fill:none;stroke:#FFFFFF;stroke-width:1.962;} .st5{fill:none;stroke:#FFFFFF;stroke-width:1.962;stroke-linecap:square;stroke-linejoin:round;}</style><circle class="st0" cx="15" cy="15" r="12.6"/><path class="st1" d="M17.8 12.2c.7 0 1.2-.5 1.2-1.2s-.5-1.2-1.2-1.2-1.2.5-1.2 1.2.6 1.2 1.2 1.2"/><circle class="st2" cx="17.8" cy="11" r="1.2"/><path class="st3" d="M17.8 20.2c.7 0 1.2-.5 1.2-1.2s-.5-1.2-1.2-1.2-1.2.5-1.2 1.2c0 .6.6 1.2 1.2 1.2"/><circle class="st4" cx="17.8" cy="19" r="1.2"/><path class="st3" d="M9.9 16.2c.7 0 1.2-.5 1.2-1.2s-.5-1.2-1.2-1.2-1.2.5-1.2 1.2.5 1.2 1.2 1.2"/><circle class="st4" cx="9.9" cy="15" r="1.2"/><polyline class="st5" points="17.5,11.4 10.8,15 17.5,18.6"/></svg>