<?xml version="1.0" encoding="utf-8"?>
<!-- Generator: Adobe Illustrator 19.2.0, SVG Export Plug-In . SVG Version: 6.00 Build 0)  -->
<svg version="1.1" id="Layer_1" xmlns="http://www.w3.org/2000/svg" xmlns:xlink="http://www.w3.org/1999/xlink" x="0px" y="0px"
	 viewBox="0 0 64 64" style="enable-background:new 0 0 64 64;" xml:space="preserve">
<style type="text/css">
	.st0{fill:#FFFFFF;}
</style>
<g>
	<g>
		<path class="st0" d="M47,2h14c1.7,0,3,1.3,3,3v26c0,1.7-1.3,3-3,3H47c-1.7,0-3-1.3-3-3V5C44,3.3,45.3,2,47,2z"/>
	</g>
	<g>
		<path class="st0" d="M12.7,3H39c3.4,0,7,2.2,7,6c0,0.6-0.4,1-1,1c-0.6,0-1-0.4-1-1c0-2.5-2.6-4-5-4H12.7C10.3,5,8.3,6.7,8,8.9
			c-0.1,1,0,1.9,0.5,2.7c0.2,0.3,0.2,0.6,0,0.9C8.4,12.8,8.1,13,7.8,13C5.6,13.3,4,15.3,4,17.4c0,0.9,0.3,1.8,0.8,2.5
			C5,20.3,5,20.6,5,20.9c-0.1,0.3-0.3,0.5-0.5,0.6c-1.5,0.8-2.4,2.3-2.4,4c0,1.5,0.7,2.8,1.9,3.7c0.3,0.2,0.4,0.5,0.4,0.8
			S4.2,30.6,4,30.8c-1.5,1-2.2,2.8-1.9,4.5c0.4,2.1,2.4,3.6,4.6,3.6H23c0.3,0,0.5,0.1,0.7,0.3c0.2,0.2,0.3,0.6,0.3,0.9
			c0,0.5-0.1,1.2-0.3,1.9c-0.1,0.6-0.2,1.2-0.3,2c-0.2,1.3-0.4,3.3-0.4,5.1c0,5,1.5,8.3,4.5,10.1c2,1.2,4.3,0.6,5.4,0.2l-0.9-10
			c0-0.4,0-0.8,0.2-1.1l12-18.7c0.3-0.5,0.9-0.6,1.4-0.3s0.6,0.9,0.3,1.4L34,49.4L35,60c0,0.4-0.2,0.8-0.5,1c-0.2,0.1-4.4,2.2-8,0
			c-3.7-2.3-5.5-6.2-5.5-11.9c0-2,0.3-4.1,0.4-5.4c0.1-0.7,0.2-1.4,0.3-2c0-0.3,0.1-0.5,0.1-0.7H6.6c-3.2,0-6-2.2-6.6-5.3
			c-0.4-2.1,0.3-4.2,1.7-5.7c-1.2-1.2-1.8-2.8-1.8-4.5c0-2.1,1-4,2.6-5.2c-0.4-0.9-0.6-1.8-0.6-2.8c0-2.7,1.8-5.2,4.3-6.1
			C5.9,10.5,5.8,9.6,6,8.6C6.5,5.4,9.4,3,12.7,3z"/>
	</g>
</g>
</svg>
