<svg xmlns="http://www.w3.org/2000/svg" viewBox="0 0 68.03 68.03"><defs><style>.cls-1{fill:#e2c725;}.cls-2{fill:#cc2027;}.cls-3{fill:#971f1f;}.cls-4{fill:#ee8c97;}.cls-5{fill:#95979a;}</style></defs><title>menu</title><polygon class="cls-1" points="1.73 16.31 20.54 20.21 18.82 1.74 31.78 11.15 39.66 1.96 42.16 17.71 57.65 7.57 49.42 21.96 67.03 21.96 55.03 32.59 66.87 44.94 51.16 47.86 58.3 64.86 42.43 56.44 37.59 61.37 35.45 54.15 14.5 35.96 6.65 35.18 14.16 30.39 1.73 16.31"/><path class="cls-2" d="M30.25 54.44c12.11 1.95 23.62-14 21.13-23.32-5.59-16.94-24.5-17.34-29-4-2.32 0-5.34 1.12-6.59 3.55a11.78 11.78 0 0 0-.72 11.66c-2.3 2.59-3.65 4.07-3.45 5.77-.17 1.16 4.63 7.9 12.6 11.49 1.87.69 3.97-2.49 6.03-5.15z"/><path class="cls-3" d="M37.67 46.53c-5.56 0-10-4.4-12.75-7.25a4.8 4.8 0 0 1-4.32.08 5.6 5.6 0 0 1-3-3.94 1 1 0 0 1 .89-1.1 1 1 0 0 1 1.1.89 3.72 3.72 0 0 0 1.87 2.35 3.11 3.11 0 0 0 3.11-.38l.7-.43.56.6c4.69 5 10.29 9.94 17.26 5.42a1 1 0 0 1 1.09 1.68 11.86 11.86 0 0 1-6.51 2.08z"/><path class="cls-3" d="M25.12 39a1 1 0 0 1-.73-1.68c1.7-1.82 2.4-4 1.87-5.82-.47-1.63-1.92-2.85-4.08-3.42a1 1 0 1 1 .51-1.93c2.87.76 4.82 2.46 5.5 4.8.72 2.51-.15 5.4-2.33 7.74a1 1 0 0 1-.74.31z"/><path class="cls-3" d="M30.25 55.44a1 1 0 0 1-.34-.06 31 31 0 0 1-15.63-12.47 1 1 0 0 1 1.67-1.11 29.11 29.11 0 0 0 14.65 11.7 1 1 0 0 1-.35 1.94z"/><path class="cls-4" d="M49.42 29.83c.08 3.32-3.23 1-7.74-1.2-3.67-1.75-9.85-5.42-8.76-8.14 1.43-3.57 6.58-.83 8.25.24 3.42 2.2 8.18 6.17 8.25 9.1z"/><path class="cls-4" d="M25.91 33c-.47 1.51-2.36 1.69-3.74 1a9 9 0 0 1-3.28-3.75c-.47-1.51 2.59-2.1 4-1.51 2.78 1.17 3.41 3.05 3.02 4.26z"/><path class="cls-5" d="M6.95 66.35c-.32-.35-3.06-3.78-2.48-5.63a1.6 1.6 0 0 1 1.18-1.07 2.15 2.15 0 0 1 .6-.07 4.54 4.54 0 0 1-.32-2.33 2 2 0 0 1 2.12-1.59 2.26 2.26 0 0 1 .06-.66 2.19 2.19 0 0 1 2-1.6c2-.37 4.34.44 6.53 2.26s3.81 4.33 3.81 5.85h-1c0-1.06-1.32-3.31-3.45-5.09-1.13-.94-3.37-2.47-5.71-2a1.2 1.2 0 0 0-1.21.84 1.41 1.41 0 0 0 0 .47c4.25.67 8.53 4.77 9 7.12a1.39 1.39 0 0 1-.59 1.64c-.71.41-1.95 0-3.69-1.32-2.13-1.57-4.79-4.3-5.54-6.52-1.26-.05-1.26.55-1.34.79a4.21 4.21 0 0 0 .49 2.35 12.65 12.65 0 0 1 5.28 4 1.5 1.5 0 0 1 .31 1.62 1.28 1.28 0 0 1-1.41.21c-1.74-.51-3.78-2.78-4.89-5a1.66 1.66 0 0 0-.79 0 .61.61 0 0 0-.5.41c-.32 1 1.24 3.42 2.29 4.7zm1.26-5.11c1 1.6 2.49 3.08 3.67 3.43h.18a10.58 10.58 0 0 0-2.84-2.82 11.25 11.25 0 0 0-1.01-.61zm1.19-4.44a17.38 17.38 0 0 0 4.86 5.45c1.84 1.38 2.63 1.43 2.74 1.37s.21-.12.12-.57c-.38-1.73-3.87-5.41-7.72-6.25z"/></svg>