<svg xmlns="http://www.w3.org/2000/svg" viewBox="0 0 68.03 68.03"><defs><style>.cls-1{fill:#d3eded;}.cls-2{fill:#acdfeb;}.cls-3,.cls-4,.cls-7{fill:none;}.cls-3,.cls-4{stroke:#e4ba22;stroke-miterlimit:10;}.cls-3,.cls-4,.cls-7,.cls-8{stroke-linecap:round;}.cls-3{stroke-width:2px;}.cls-5,.cls-8{fill:#4b5c29;}.cls-6{fill:#d12c4f;}.cls-7{stroke:#ab1e54;}.cls-7,.cls-8{stroke-linejoin:round;}.cls-8{stroke:#2a3419;}</style></defs><title>menu</title><path class="cls-1" d="M30.2 19.84l-2.8 19.58a2.23 2.23 0 0 1-2.81 1.25l-14.26-11.67.59-12.23 9-4z"/><polygon class="cls-2" points="19.91 13.23 16.53 17.19 11.32 17.19 16.5 26.79 16.53 17.19 24.34 23.16 19.91 13.23"/><polyline class="cls-2" points="30.2 19.84 24.34 23.16 26.73 40.31"/><polyline class="cls-2" points="10.33 28.96 16.5 26.79 25.63 40.77"/><polygon class="cls-2" points="24.24 34.88 24.34 23.16 16.5 26.79 24.24 34.88"/><ellipse class="cls-3" cx="27.94" cy="44.85" rx="4.06" ry="3.92" transform="translate(-15.84 15.26) rotate(-24.03)"/><path class="cls-4" d="M27.89 39.25a3.2 3.2 0 0 1-3.84 1.75"/><path class="cls-5" d="M39.66 32.81c-15.75 13.27-21.45 18.88-27 24.34a.78.78 0 0 0-.07 1 .78.78 0 0 0 1.11.13c9.23-7.48 16.71-15.61 28.3-23.14a.78.78 0 0 0 .35-.75l-.15-1.21a.78.78 0 0 0-.85-.68l-1.25.13a.79.79 0 0 0-.44.18z"/><path class="cls-5" d="M39.5 27.54c-1.95-2.73-3.91-2.17-5.72-1.73a.78.78 0 0 0-.45 1.2 3.05 3.05 0 0 1 .6 1.89 3.4 3.4 0 0 0 1.53 3.1.83.83 0 0 0 .21.13 11.41 11.41 0 0 0 4.65.62.77.77 0 0 1 .79.69 12.93 12.93 0 0 0 2.41 6.78 5 5 0 0 0 2.16 1.6.77.77 0 0 0 1-.73 2.26 2.26 0 0 1 .23-1 3.32 3.32 0 0 0 .43-3.27.78.78 0 0 0-.19-.28l-1.34-1.26-.07-.07z"/><path class="cls-6" d="M56.45 16.94c0-.81-.7-.2-2.36.83a.53.53 0 0 1-.75-.2c-.56-1.07-1.17-2.23-2.68-1.91-.89-.69-3.14 1.82-5.18 3.84l-.14.11c-4.86 3-6.53 6.51-6.09 10.38a.93.93 0 0 0 0 .18 6.46 6.46 0 0 0 3.52 3.83.75.75 0 0 1 .2.15c2.19 2.28 6.11 2.14 9.81-.92a6.25 6.25 0 0 0 .73-.75c1.22-1.42 2.82-2.33 5.78-3.76 1.67-.81 2.08-1.61.67-3.85a4.29 4.29 0 0 0-.42-.46.81.81 0 0 1-.09-.92c.45-.77-.41-.72.74-1.51a.74.74 0 0 0 .34-.6 1.54 1.54 0 0 0-.2-.67.77.77 0 0 1-.08-.35c0-1.64-.48-1.75-1.58-2a2.52 2.52 0 0 1-1-.78 1.25 1.25 0 0 0-1.22-.64z"/><path class="cls-7" d="M50.25 16.05c-1.43.74-1.73 1.89-1.75 3.9.14 4.51-4.54 7.5-8.69 10.5"/><path class="cls-7" d="M53.39 18.09c-1.94.91-2.39-.4-4.85 1.21"/><path class="cls-7" d="M56.15 16.83a4.13 4.13 0 0 1-1.15 2.73.78.78 0 0 0-.26.78c.25.84.39 1.76-2.46 4.26a.78.78 0 0 1-.74.15 6.8 6.8 0 0 0-4.95.16"/><path class="cls-7" d="M60.24 27.35a15.08 15.08 0 0 0-8.24-2.47"/><line class="cls-7" x1="57.47" y1="26.04" x2="59.06" y2="24.03"/><path class="cls-7" d="M54.78 20.4a2.35 2.35 0 0 1 2.22 1.13c.52.69 1.81.35 3.21.12"/><path class="cls-7" d="M59.41 20.27c.33-.63.26-1.1-.46-1.33a.73.73 0 0 1-.35-.24 1 1 0 0 0-1-.36.76.76 0 0 0-.65.64 1 1 0 0 0 .43 1 1.72 1.72 0 0 0 1 .37.78.78 0 0 1 .73 1v.11"/><path class="cls-8" d="M43.92 34.73c1.34 1.36 2.07 2.73 1.76 4.11"/><path class="cls-8" d="M35.56 27.32a9.91 9.91 0 0 1 3.92 3.09"/><path class="cls-5" d="M34.15 31.06c-6.5 19.54-9.6 26.94-12.62 34.11a.78.78 0 0 1-.93.45.78.78 0 0 1-.53-1c3.56-11.37 8.34-21.34 11.06-34.87a.78.78 0 0 1 .56-.6l1.18-.31a.78.78 0 0 1 .95.54l.34 1.21a.79.79 0 0 1-.01.47z"/><path class="cls-5" d="M39.1 29.26c3.26.8 3.47 2.83 3.73 4.68a.78.78 0 0 1-1 .87 3.05 3.05 0 0 0-2 .14 3.4 3.4 0 0 1-3.4-.29.83.83 0 0 1-.2-.15 11.41 11.41 0 0 1-2.23-4.1.77.77 0 0 0-.94-.48 12.93 12.93 0 0 1-7.19.27 5 5 0 0 1-2.28-1.41.77.77 0 0 1 .29-1.24 2.26 2.26 0 0 0 .83-.55 3.32 3.32 0 0 1 2.88-1.61.78.78 0 0 1 .33.08l1.66.78h.09z"/><path class="cls-6" d="M42.68 9.59c.75-.3.44.57.11 2.49-.08.43.38.21.82.26a2.34 2.34 0 0 1 2.39 2.16c1 .57-.53 3.59-1.65 6.23a.76.76 0 0 0 0 .17c-1 5.62-3.63 8.47-7.39 9.5h-.18a6.46 6.46 0 0 1-4.84-1.83.74.74 0 0 0-.21-.13c-3-1.23-4.33-5.11-2.63-9.89a.8.8 0 0 1 .06-.14c1.16-2 1.37-4 1.65-8.36a.78.78 0 0 1 .52-.69 5.42 5.42 0 0 1 3.33.08.79.79 0 0 0 .87-.27c.54-.7.82.12 1.12-1.24a.74.74 0 0 1 .43-.54 1.54 1.54 0 0 1 .69-.06.77.77 0 0 0 .36-.06c1.52-.6 1.8-.2 2.43.74a2.52 2.52 0 0 0 1.09.63 1.25 1.25 0 0 1 1.03.95z"/><path class="cls-7" d="M45.8 15c-.16 1.6-1.11 2.31-3 3.07-4.24 1.53-5.29 7-6.54 12"/><path class="cls-7" d="M42.75 12.86c-.17 2.52.39 3.39.68 5"/><path class="cls-7" d="M42.89 9.82a4.13 4.13 0 0 0-2.1 2.07.78.78 0 0 1-.63.53c-.87.08-1.78.29-3 3.86a.78.78 0 0 0 .13.74 6.8 6.8 0 0 1 1.68 4.66"/><path class="cls-7" d="M31.2 9.88a16.2 16.2 0 0 1 5.8 6.82"/><line class="cls-7" x1="33.85" y1="12.01" x2="35.13" y2="9.79"/><path class="cls-7" d="M40.08 12.42a2.35 2.35 0 0 0-1.87-1.65c-.84-.23-1-1.56-1.3-2.94"/><path class="cls-7" d="M38.5 8.07c.5-.54.93-.65 1.4-.07a.73.73 0 0 0 .35.23 1 1 0 0 1 .75.77.76.76 0 0 1-.36.84 1 1 0 0 1-1.12 0 1.72 1.72 0 0 1-.77-.84.78.78 0 0 0-1.16-.32l-.09.06"/><path class="cls-8" d="M34.23 30.83a1.61 1.61 0 0 0-.53-.77.77.77 0 0 0-.94-.13 4.18 4.18 0 0 1-1.63.44"/><path class="cls-8" d="M30.79 27.81c-1.76-.74-3.3-.91-4.47-.12"/><path class="cls-8" d="M40.77 32.84a9.91 9.91 0 0 0-4.32-2.49"/><line class="cls-8" x1="30.84" y1="40.64" x2="29.88" y2="43.58"/><path class="cls-8" d="M41.33 33.39c-.58 0-1.58.8-3.37.79"/><path class="cls-3" d="M29.53 48.43a4 4 0 0 1-5.3-1.93"/><path class="cls-4" d="M27.89 39.25a3.2 3.2 0 0 1-3.84 1.75"/></svg>