<svg xmlns="http://www.w3.org/2000/svg" viewBox="0 0 68.03 68.03"><defs><style>.cls-1{fill:#f9f0b9;}.cls-2{fill:#ffe2b9;}.cls-3{fill:#f0a7c9;}.cls-4{fill:#fdea2f;}.cls-5{fill:none;stroke:#d86daa;stroke-linecap:round;stroke-miterlimit:10;}.cls-6{fill:#49431a;}</style></defs><title>menu</title><path class="cls-1" d="M17.34 36.93c-4.07.4-7.71 3.78-8.79 9.92a1.94 1.94 0 0 0 .59 1.32s5.22-7.32 10.78-7.17a.4.4 0 0 0 .31-.65l-2.41-3.3a.49.49 0 0 0-.48-.12z"/><path class="cls-1" d="M28.09 32.65l1.55-1.65c-1.53-3.67 4.84-10.25 4.84-10.25a2.86 2.86 0 0 0-1.69-.51c-3.77.87-7.69 4-8.8 7.56z"/><path class="cls-2" d="M23.27 46.25c-11.5-11-17.15-24.53-17.12-27.74.06-6.3 9.09-2.95 10.73-1.64a5.77 5.77 0 0 1 .26.66c.92 1.09 11.08 14.82 13.69 17.15l-3.23 5.32z"/><path class="cls-3" d="M6.2 19.16c0-.52-.45-.62-1.24-1.11a9 9 0 0 1-1-2.67c-.68-2.53-1.7-7.89 3.04-9.38s7.74 4.87 8.91 7c.43.79 1.05 2 1.37 2.77-.63 1.12-.12 1-.43 1.47-.52.8-1.47 1.56-3.9 2a17.77 17.77 0 0 1-6.75-.08z"/><path class="cls-4" d="M31.24 35.78c.93.83 1.4.29 2.35 1 5.78 4.4 12 7.78 18.25 8.65 3.36.47 9.74.56 11.93 2.46a2.94 2.94 0 0 1 .37 2.44c-2 3.42-10 6.53-17.72 6.38-6.65-.13-14.46-1.18-23.37-9.14l-.54-.43-.29-1.64 5.38-5.5 1.4-2.06z"/><path class="cls-5" d="M16.83 14.84c.82 3.7-10.18 3.79-11.48 2.81"/><path class="cls-6" d="M64 48.18a1.06 1.06 0 0 0-.68.5 2.33 2.33 0 0 0 .14 1.25.72.72 0 0 0 .74.39 2.47 2.47 0 0 0-.2-2.14"/><path class="cls-1" d="M25 63.43c-3.5 1.07-15.78-13.08-9-21.81 3.33-3 7.59-2.58 11.56-1.39-7.5 5.91-6.52 13.58-1.33 23.27z"/><path class="cls-1" d="M27.61 40.22c-1.79-2.23-1.06-9.11 4.5-10.16h.07c12.46-.67 19.09 5.13 22.07 9.28a13.8 13.8 0 0 1 1.47 3.42c-8.78-6.08-21.89-7.94-26.67-4.37a3.68 3.68 0 0 0-.55.49c-.61.68-.57 1.25-.89 1.34z"/></svg>