<svg xmlns="http://www.w3.org/2000/svg" viewBox="0 0 64 64" enable-background="new 0 0 64 64"><g><path fill="#9E6161" d="M54 12v49c0 1.1-.9 2-2 2h-40c-1.1 0-2-.9-2-2v-49c0-1.1.9-2 2-2h7v5h-4v43h34v-43h-4v-5h7c1.1 0 2 .9 2 2z"/><path fill="#fff" d="M49 15v43h-34v-43h4v2h26v-2h4zm-4.8 9c0-.6-.5-1-1.1-1h-21.7c-.6 0-1.1.4-1.1 1 0 .5.5 1 1.1 1h21.7c.6 0 1.1-.4 1.1-1zm-.2 6c0-.5-.5-1-1.1-1h-21.8c-.6 0-1.1.5-1.1 1s.5 1 1.1 1h21.7c.7 0 1.2-.5 1.2-1zm0 6c0-.5-.5-1-1.1-1h-21.8c-.6 0-1.1.5-1.1 1s.5 1 1.1 1h21.7c.7 0 1.2-.5 1.2-1zm0 6c0-.5-.5-1-1.1-1h-21.8c-.6 0-1.1.5-1.1 1s.5 1 1.1 1h21.7c.7 0 1.2-.5 1.2-1z"/><polygon fill="#FFD05C" points="45,15 45,17 19,17 19,15 19,13 45,13"/><path fill="#FFB533" d="M45 10v3h-26v-6h7c0-3.3 2.7-6 6-6s6 2.7 6 6h7v3zm-11-3c0-1.1-.9-2-2-2s-2 .9-2 2 .9 2 2 2 2-.9 2-2z"/><path fill="#D3D5DD" d="M43.1 23c.6 0 1.1.4 1.1 1 0 .5-.5 1-1.1 1h-21.7c-.6 0-1.1-.5-1.1-1 0-.6.5-1 1.1-1h21.7z"/><path fill="#D3D5DD" d="M42.9 29c.6 0 1.1.5 1.1 1s-.5 1-1.1 1h-21.8c-.6 0-1.1-.5-1.1-1s.5-1 1.1-1h21.8z"/><path fill="#D3D5DD" d="M42.9 35c.6 0 1.1.5 1.1 1s-.5 1-1.1 1h-21.8c-.6 0-1.1-.5-1.1-1s.5-1 1.1-1h21.8z"/><path fill="#D3D5DD" d="M42.9 41c.6 0 1.1.5 1.1 1s-.5 1-1.1 1h-21.8c-.6 0-1.1-.5-1.1-1s.5-1 1.1-1h21.8z"/><path fill="#2E2E2E" d="M32 5c1.1 0 2 .9 2 2s-.9 2-2 2-2-.9-2-2 .9-2 2-2z"/><path fill="#2E2E2E" d="M52 9h-6v-2c0-.6-.4-1-1-1h-6.1c-.5-3.4-3.4-6-6.9-6s-6.4 2.6-6.9 6h-6.1c-.6 0-1 .4-1 1v2h-6c-1.7 0-3 1.3-3 3v49c0 1.7 1.3 3 3 3h40c1.7 0 3-1.3 3-3v-49c0-1.7-1.3-3-3-3zm-32-1h6c.6 0 1-.4 1-1 0-2.8 2.2-5 5-5s5 2.2 5 5c0 .6.4 1 1 1h6v8h-24v-8zm25 10c.6 0 1-.4 1-1v-1h2v41h-32v-41h2v1c0 .6.4 1 1 1h26zm8 43c0 .6-.4 1-1 1h-40c-.6 0-1-.4-1-1v-49c0-.6.4-1 1-1h6v3h-4v45h36v-45h-4v-3h6c.6 0 1 .4 1 1v49z"/></g></svg>