<svg id="Calque_1" data-name="Calque 1" xmlns="http://www.w3.org/2000/svg" viewBox="0 0 68.03 68.03"><defs><style>.cls-1,.cls-2{fill:#ffce06;}.cls-2{stroke:#fff;stroke-miterlimit:10;}.cls-3{font-size:14.2px;fill:#fff;font-family:Helvetica;font-weight:700;letter-spacing:-1px;}</style></defs><title>banabites</title><polygon class="cls-1" points="55.83 58.19 42.6 47.33 29.37 58.19 35.01 41.81 21.19 33.02 37.91 32.9 42.6 17.47 47.29 32.9 64 33.02 50.18 41.81 55.83 58.19"/><polygon class="cls-1" points="38.67 58.19 25.43 47.33 12.21 58.19 17.85 41.81 4.03 33.02 20.75 32.9 25.43 17.47 30.13 32.9 46.84 33.02 33.02 41.81 38.67 58.19"/><polygon class="cls-2" points="50.37 59.19 34.02 45.76 17.66 59.19 24.63 38.95 7.55 28.07 28.22 27.92 34.02 8.84 39.81 27.92 60.48 28.07 43.4 38.95 50.37 59.19"/><text class="cls-3" transform="translate(30.07 40.87)">1</text></svg>